<svg width="48" height="48" viewBox="0 0 48 48" fill="none" xmlns="http://www.w3.org/2000/svg">
<g id="icons">
<path id="Vector" d="M28.5001 36.0001V33.7501C28.5001 31.0313 31.4569 28.4597 33.3751 26.6251C36.0788 24.0404 37.5001 20.5679 37.5001 16.5001C37.5001 9.00005 31.5254 3.00005 24.0001 3.00005C22.2258 2.9951 20.4681 3.34091 18.828 4.0176C17.1878 4.69428 15.6977 5.6885 14.4431 6.94308C13.1885 8.19765 12.1943 9.68785 11.5176 11.328C10.8409 12.9681 10.4951 14.7258 10.5001 16.5001C10.5001 20.4226 11.9822 24.1304 14.6251 26.6251C16.5329 28.426 19.5001 31.0032 19.5001 33.7501V36.0001" stroke="#333541" stroke-width="2" stroke-linecap="round" stroke-linejoin="round"/>
<path id="Vector_2" d="M21 45H27" stroke="#333541" stroke-width="2" stroke-linecap="round" stroke-linejoin="round"/>
<path id="Vector_3" d="M19.5 40.5H28.5" stroke="#333541" stroke-width="2" stroke-linecap="round" stroke-linejoin="round"/>
<path id="Vector_4" d="M24 36V24" stroke="#E31837" stroke-width="2" stroke-linecap="round" stroke-linejoin="round"/>
<path id="Vector_5" d="M27.5625 22.5C27.5625 22.5 25.5459 24 24 24C22.4541 24 20.4375 22.5 20.4375 22.5" stroke="#FF8300" stroke-width="2" stroke-linecap="round" stroke-linejoin="round"/>
</g>
</svg>
